<svg width="640" height="300" viewBox="0 0 640 300" xmlns="http://www.w3.org/2000/svg" font-family="sans-serif" font-size="14">
  <rect x="0" y="0" width="640" height="300" fill="white"/>
  <g stroke="#4682b4" stroke-width="1.5" opacity="0.7">
    <line x1="86" y1="150" x2="300" y2="55"/><line x1="86" y1="150" x2="300" y2="120"/>
    <line x1="86" y1="150" x2="300" y2="185"/><line x1="86" y1="150" x2="300" y2="250"/>
  </g>
  <g stroke="#27ae60" stroke-width="1.5" opacity="0.7">
    <line x1="330" y1="55" x2="545" y2="150"/><line x1="330" y1="120" x2="545" y2="150"/>
    <line x1="330" y1="185" x2="545" y2="150"/><line x1="330" y1="250" x2="545" y2="150"/>
  </g>
  <circle cx="60" cy="150" r="26" fill="#eaf2fb" stroke="#4682b4" stroke-width="2"/>
  <text x="60" y="155" text-anchor="middle">Ti</text>
  <text x="60" y="205" text-anchor="middle" fill="#555">input</text>
  <g>
    <circle cx="315" cy="55"  r="22" fill="#fdeaea" stroke="#c0392b" stroke-width="2"/>
    <circle cx="315" cy="120" r="22" fill="#fdeaea" stroke="#c0392b" stroke-width="2"/>
    <circle cx="315" cy="185" r="22" fill="#fdeaea" stroke="#c0392b" stroke-width="2"/>
    <circle cx="315" cy="250" r="22" fill="#fdeaea" stroke="#c0392b" stroke-width="2"/>
    <text x="315" y="60"  text-anchor="middle">σ</text><text x="315" y="125" text-anchor="middle">σ</text>
    <text x="315" y="190" text-anchor="middle">σ</text><text x="315" y="255" text-anchor="middle">σ</text>
  </g>
  <text x="315" y="290" text-anchor="middle" fill="#555">H hidden sigmoid neurons</text>
  <circle cx="575" cy="150" r="26" fill="#eafaf0" stroke="#27ae60" stroke-width="2"/>
  <text x="575" y="155" text-anchor="middle">ŷ</text>
  <text x="575" y="205" text-anchor="middle" fill="#555">linear output</text>
</svg>